{
  "accessors": [
    {
      "bufferView": 1,
      "componentType": 5126,
      "count": 555,
      "max": [
        2.6660001277923584,
        0.6860000491142273,
        0.25
      ],
      "min": [
        0.07500000298023224,
        0.0,
        -0.25
      ],
      "type": "VEC3"
    },
    {
      "bufferView": 1,
      "byteOffset": 6660,
      "componentType": 5126,
      "count": 555,
      "max": [
        0.9999953508377075,
        0.999869704246521,
        1.0
      ],
      "min": [
        -0.9999946355819702,
        -0.9999065399169922,
        -1.0
      ],
      "type": "VEC3"
    },
    {
      "bufferView": 0,
      "componentType": 5125,
      "count": 1644,
      "type": "SCALAR"
    },
    {
      "bufferView": 1,
      "byteOffset": 13320,
      "componentType": 5126,
      "count": 288,
      "max": [
        1.0,
        1.0,
        47.08787155151367
      ],
      "min": [
        -1.0,
        -1.0,
        -1.0
      ],
      "type": "VEC3"
    },
    {
      "bufferView": 1,
      "byteOffset": 16776,
      "componentType": 5126,
      "count": 288,
      "max": [
        1.0,
        1.0,
        1.0
      ],
      "min": [
        -1.0,
        -1.0,
        -1.0
      ],
      "type": "VEC3"
    },
    {
      "bufferView": 0,
      "byteOffset": 6576,
      "componentType": 5125,
      "count": 432,
      "type": "SCALAR"
    },
    {
      "bufferView": 1,
      "byteOffset": 20232,
      "componentType": 5126,
      "count": 384,
      "max": [
        1.0,
        9.999999046325684,
        1.0
      ],
      "min": [
        -1.0,
        -1.0,
        -1.0
      ],
      "type": "VEC3"
    },
    {
      "bufferView": 1,
      "byteOffset": 24840,
      "componentType": 5126,
      "count": 384,
      "max": [
        0.9807853698730469,
        0.9807854294776917,
        1.0
      ],
      "min": [
        -0.9807853698730469,
        -0.9807853698730469,
        -1.0
      ],
      "type": "VEC3"
    },
    {
      "bufferView": 0,
      "byteOffset": 8304,
      "componentType": 5125,
      "count": 720,
      "type": "SCALAR"
    },
    {
      "bufferView": 1,
      "byteOffset": 29448,
      "componentType": 5126,
      "count": 254,
      "max": [
        1.1025004386901855,
        1.2024999856948853,
        2.0799999237060547
      ],
      "min": [
        -1.102500319480896,
        -1.202500581741333,
        -1.0
      ],
      "type": "VEC3"
    },
    {
      "bufferView": 1,
      "byteOffset": 32496,
      "componentType": 5126,
      "count": 254,
      "max": [
        1.0,
        1.0,
        1.0
      ],
      "min": [
        -1.0,
        -1.0,
        -1.0
      ],
      "type": "VEC3"
    },
    {
      "bufferView": 0,
      "byteOffset": 11184,
      "componentType": 5125,
      "count": 408,
      "type": "SCALAR"
    }
  ],
  "asset": {
    "extras": {
      "author": "Jeff Harper Games (https://sketchfab.com/jeffharpergames)",
      "license": "CC-BY-4.0 (http://creativecommons.org/licenses/by/4.0/)",
      "source": "https://sketchfab.com/3d-models/bank-0b8ac0b5bc9f4d3ab977baaacd300809",
      "title": "Bank"
    },
    "generator": "Sketchfab-12.66.0",
    "version": "2.0"
  },
  "bufferViews": [
    {
      "buffer": 0,
      "byteLength": 12816,
      "name": "floatBufferViews",
      "target": 34963
    },
    {
      "buffer": 0,
      "byteLength": 35544,
      "byteOffset": 12816,
      "byteStride": 12,
      "name": "floatBufferViews",
      "target": 34962
    }
  ],
  "buffers": [
    {
      "byteLength": 48360,
      "uri": "scene.bin"
    }
  ],
  "materials": [
    {
      "doubleSided": true,
      "name": "RootNode",
      "pbrMetallicRoughness": {
        "baseColorFactor": [
          0.5,
          0.5,
          0.5,
          1.0
        ],
        "metallicFactor": 0.0,
        "roughnessFactor": 0.6
      }
    },
    {
      "doubleSided": true,
      "name": "Material",
      "pbrMetallicRoughness": {
        "baseColorFactor": [
          0.6400000000000001,
          0.6400000000000001,
          0.6400000000000001,
          1.0
        ],
        "metallicFactor": 0.0,
        "roughnessFactor": 0.6
      }
    }
  ],
  "meshes": [
    {
      "name": "Text__0",
      "primitives": [
        {
          "attributes": {
            "NORMAL": 1,
            "POSITION": 0
          },
          "indices": 2,
          "material": 0,
          "mode": 4
        }
      ]
    },
    {
      "name": "Cube.004__0",
      "primitives": [
        {
          "attributes": {
            "NORMAL": 4,
            "POSITION": 3
          },
          "indices": 5,
          "material": 0,
          "mode": 4
        }
      ]
    },
    {
      "name": "Cylinder__0",
      "primitives": [
        {
          "attributes": {
            "NORMAL": 7,
            "POSITION": 6
          },
          "indices": 8,
          "material": 0,
          "mode": 4
        }
      ]
    },
    {
      "name": "Cube_Material_0",
      "primitives": [
        {
          "attributes": {
            "NORMAL": 10,
            "POSITION": 9
          },
          "indices": 11,
          "material": 1,
          "mode": 4
        }
      ]
    }
  ],
  "nodes": [
    {
      "children": [
        1
      ],
      "matrix": [
        -1.0,
        9.860761315262648e-32,
        -4.440892098500626e-16,
        0.0,
        -4.440892098500626e-16,
        -2.220446049250313e-16,
        1.0,
        0.0,
        0.0,
        1.0,
        2.220446049250313e-16,
        0.0,
        2.2213459942577174e-06,
        9.065831860869952e-22,
        -4.082887699041748e-06,
        1.0
      ],
      "name": "Sketchfab_model"
    },
    {
      "children": [
        2
      ],
      "matrix": [
        1.0,
        0.0,
        0.0,
        0.0,
        0.0,
        0.0,
        1.0,
        0.0,
        0.0,
        -1.0,
        0.0,
        0.0,
        0.0,
        0.0,
        0.0,
        1.0
      ],
      "name": "b8e3b8a3b3c3409cbc25362cafc7e961.fbx"
    },
    {
      "children": [
        3,
        5,
        7,
        9,
        11,
        14
      ],
      "name": "RootNode"
    },
    {
      "children": [
        4
      ],
      "matrix": [
        8.749560655032106e-08,
        1.5338104992416202e-23,
        -1.1589144468307464,
        0.0,
        -8.749562494946585e-08,
        1.1589144468307462,
        -6.605735905842996e-15,
        0.0,
        1.1589144468307429,
        8.749562494946611e-08,
        8.749560655032106e-08,
        0.0,
        1.8892347812652588,
        4.527898788452148,
        1.5175801515579224,
        1.0
      ],
      "name": "Text"
    },
    {
      "mesh": 0,
      "name": "Text__0"
    },
    {
      "children": [
        6
      ],
      "matrix": [
        2.6620001792907715,
        0.0,
        0.0,
        0.0,
        0.0,
        -6.505423166268443e-07,
        -3.9930002689361044,
        0.0,
        0.0,
        0.1000000014901148,
        -1.6292068181953874e-08,
        0.0,
        0.0,
        -0.699999988079071,
        0.0,
        1.0
      ],
      "name": "Cube.004"
    },
    {
      "mesh": 1,
      "name": "Cube.004__0"
    },
    {
      "children": [
        8
      ],
      "matrix": [
        0.5,
        0.0,
        0.0,
        0.0,
        0.0,
        -8.146033969591571e-08,
        -0.4999999999999934,
        0.0,
        0.0,
        1.9999999999999736,
        -3.2584135878366283e-07,
        0.0,
        1.25,
        2.0,
        2.25,
        1.0
      ],
      "name": "Cylinder"
    },
    {
      "mesh": 2,
      "name": "Cylinder__0"
    },
    {
      "children": [
        10
      ],
      "matrix": [
        2.0,
        0.0,
        0.0,
        0.0,
        0.0,
        -4.887620381754942e-07,
        -2.9999999999999605,
        0.0,
        0.0,
        1.9999999999999736,
        -3.2584135878366283e-07,
        0.0,
        0.0,
        2.0,
        0.0,
        1.0
      ],
      "name": "Cube"
    },
    {
      "mesh": 3,
      "name": "Cube_Material_0"
    },
    {
      "children": [
        12
      ],
      "matrix": [
        -0.2908645671467173,
        -0.05518931757363332,
        -0.9551710965031468,
        0.0,
        -0.5663927759935206,
        -0.794672338632467,
        0.21839125414476446,
        0.0,
        -0.7711010052549984,
        0.6045243585675593,
        0.19988321884202093,
        0.0,
        4.076245307922363,
        5.903861999511719,
        -1.0054539442062378,
        1.0
      ],
      "name": "Lamp"
    },
    {
      "children": [
        13
      ],
      "matrix": [
        1.0,
        0.0,
        0.0,
        0.0,
        0.0,
        2.220446049250313e-16,
        1.0,
        0.0,
        0.0,
        -1.0,
        2.220446049250313e-16,
        0.0,
        0.0,
        0.0,
        0.0,
        1.0
      ],
      "name": "Object_12"
    },
    {
      "name": "Object_13"
    },
    {
      "children": [
        15
      ],
      "matrix": [
        0.6548618095101069,
        0.44524536775376433,
        0.6106656801712077,
        0.0,
        -0.3173700982324854,
        0.895343210797482,
        -0.31246861669209625,
        0.0,
        -0.6858806158405703,
        0.01081673748369022,
        0.7276336846273468,
        0.0,
        7.481131553649902,
        5.34366512298584,
        6.5076398849487305,
        1.0
      ],
      "name": "Camera"
    },
    {
      "name": "Object_15"
    }
  ],
  "scene": 0,
  "scenes": [
    {
      "name": "Sketchfab_Scene",
      "nodes": [
        0
      ]
    }
  ]
}
